# Blender 4.0.0
# www.blender.org
mtllib glasses glass.mtl
o Circle.001
v -0.034747 1.608190 -0.271896
v -0.263605 1.615217 -0.271896
v -0.247470 1.572415 -0.271896
v -0.033357 1.653941 -0.271896
v -0.049492 1.696744 -0.271896
v -0.216264 1.539076 -0.271896
v -0.122223 1.748881 -0.271896
v -0.080698 1.730083 -0.271896
v -0.174738 1.520277 -0.271896
v -0.129216 1.518879 -0.271896
v -0.167746 1.750279 -0.271896
v -0.210336 1.734063 -0.271896
v -0.243509 1.702700 -0.271896
v -0.086626 1.535096 -0.271896
v -0.053453 1.566458 -0.271896
v -0.262215 1.660968 -0.271896
v 0.034747 1.608190 -0.271896
v 0.263605 1.615217 -0.271896
v 0.049492 1.696744 -0.271896
v 0.033357 1.653941 -0.271896
v 0.247470 1.572415 -0.271896
v 0.080698 1.730083 -0.271896
v 0.216264 1.539076 -0.271896
v 0.122223 1.748881 -0.271896
v 0.174738 1.520277 -0.271896
v 0.167746 1.750279 -0.271896
v 0.129216 1.518879 -0.271896
v 0.210336 1.734063 -0.271896
v 0.053453 1.566458 -0.271896
v 0.086626 1.535096 -0.271896
v 0.262215 1.660968 -0.271896
v 0.243509 1.702700 -0.271896
vn -0.0000 -0.0000 -1.0000
vt 0.767832 0.933648
vt 0.382746 0.996024
vt 0.003974 0.382751
vt 0.085561 0.796692
vt -0.002852 0.416744
vt 0.583253 -0.002848
vt 0.769347 0.067288
vt 0.914432 0.203305
vt 0.996427 0.384483
vt 1.002843 0.583252
vt 0.932704 0.769349
vt 0.416741 1.002846
vt 0.796694 0.914435
vt 0.615510 0.996429
vt 0.230648 0.932710
vt 0.003565 0.615512
vt 0.067286 0.230653
vt 0.203301 0.085563
vt 0.384484 0.003569
vt 0.086602 0.201856
vt 0.232165 0.066350
vt 0.418501 -0.003137
vt 0.617245 0.003975
vt 0.798139 0.086605
vt 0.996019 0.617249
vt 0.933647 0.232166
vt 1.003132 0.418503
vt 0.913394 0.798145
vt 0.581491 1.003135
vt 0.201854 0.913396
vt 0.066347 0.767836
vt -0.003138 0.581498
s 0
usemtl Material_2
f 9/1/1 3/2/1 12/3/1
f 20/4/1 22/5/1 32/6/1
f 32/6/1 31/7/1 18/8/1
f 18/8/1 21/9/1 23/10/1
f 23/10/1 25/11/1 29/12/1
f 25/11/1 27/13/1 29/12/1
f 27/13/1 30/14/1 29/12/1
f 29/12/1 17/15/1 20/4/1
f 20/4/1 19/16/1 22/5/1
f 22/5/1 24/17/1 32/6/1
f 24/17/1 26/18/1 32/6/1
f 26/18/1 28/19/1 32/6/1
f 32/6/1 18/8/1 29/12/1
f 18/8/1 23/10/1 29/12/1
f 29/12/1 20/4/1 32/6/1
f 12/3/1 11/20/1 7/21/1
f 7/21/1 8/22/1 5/23/1
f 5/23/1 4/24/1 14/25/1
f 4/24/1 1/26/1 14/25/1
f 1/26/1 15/27/1 14/25/1
f 14/25/1 10/28/1 9/1/1
f 9/1/1 6/29/1 3/2/1
f 3/2/1 2/30/1 12/3/1
f 2/30/1 16/31/1 12/3/1
f 16/31/1 13/32/1 12/3/1
f 12/3/1 7/21/1 14/25/1
f 7/21/1 5/23/1 14/25/1
f 14/25/1 9/1/1 12/3/1
